<?xml version="1.0" encoding="UTF-8"?>
<svg width="260px" height="72px" viewBox="0 0 260 72" version="1.1" xmlns="http://www.w3.org/2000/svg" xmlns:xlink="http://www.w3.org/1999/xlink">
    <title>Group</title>
    <g id="Symbols" stroke="none" stroke-width="1" fill="none" fill-rule="evenodd">
        <g id="Artboard" transform="translate(-16, -6)" fill="#FFFFFF" fill-rule="nonzero">
            <g id="Group" transform="translate(16, 6)">
                <polygon id="Path" points="28.2406276 16.9090909 25.5519033 32.448291 17.2150535 32.448291 19.9128004 16.9090909 7.47068361 16.9090909 0 60 12.4421168 60 15.3744503 43.0374309 23.7113001 43.0374309 20.769944 60 33.2391285 60 40.7098121 16.9090909"></polygon>
                <path d="M74.3962961,18.1703949 C73.3973581,17.4326731 72.2404954,16.944557 71.020011,16.745836 C69.4881128,16.4778108 67.9354834,16.3502638 66.3809772,16.3647438 L56.1088311,16.3647438 C54.5247707,16.3543286 52.9427559,16.4818282 51.3802408,16.745836 C50.0203529,16.9740224 48.7143866,17.4571325 47.5293054,18.1703949 C46.3920382,18.876382 45.4372486,19.8468582 44.7440941,21.0013655 C43.9219831,22.440215 43.3722396,24.0219279 43.1231189,25.665208 L38.7706664,50.8717346 C38.461274,52.4563633 38.461274,54.0870528 38.7706664,55.6716815 C39.0029837,56.8198129 39.6007587,57.8589784 40.4722425,58.6296828 C41.4359977,59.4013376 42.5752118,59.9160571 43.785838,60.1268307 C45.3570852,60.420474 46.9525758,60.5602471 48.5502511,60.5442174 L58.7776189,60.5442174 C60.4196397,60.5556458 62.0592914,60.415943 63.6763668,60.1268307 C65.0454096,59.881563 66.3555536,59.3733934 67.5362578,58.6296828 C68.6822425,57.8804255 69.6367133,56.8667409 70.3214692,55.6716815 C71.1393857,54.1845141 71.6797805,52.5573558 71.9155773,50.8717346 L76.2680298,25.665208 C76.6232524,24.1314236 76.6232524,22.5351499 76.2680298,21.0013655 C75.9591727,19.8791011 75.3031161,18.8868248 74.3962961,18.1703949 L74.3962961,18.1703949 Z M59.7537862,49.4471756 L51.3623294,49.4471756 L55.1953534,27.4527119 L63.5868102,27.4527119 L59.7537862,49.4471756 Z" id="Shape"></path>
                <polygon id="Path" points="78.7056367 27.8336744 88.3672577 27.8336744 82.806418 60 95.2259271 60 100.795779 27.8336744 110.466413 27.8336744 112.359081 16.9090909 80.598305 16.9090909"></polygon>
                <polygon id="Path" points="153.442816 16.9090909 145.095419 40.5805329 145.068434 16.9090909 135.26384 16.9090909 127.141318 40.5170706 126.988402 16.9090909 114.530271 16.9090909 116.877977 60 127.995847 60 136.334249 37.4074173 136.972897 60 147.730966 60 165.010438 16.9090909"></polygon>
                <path d="M223.269778,18.8600868 C222.295236,18.0831754 221.145797,17.5600934 219.92302,17.3370579 C218.382255,17.0335359 216.814559,16.8907539 215.244756,16.9109724 L194.723369,16.9109724 L187.265136,60 L199.671533,60 L202.208592,45.2592554 L203.917958,45.2592554 L208.650202,60 L222.244159,60 L216.045458,43.4461257 L216.378335,43.4461257 C217.274779,43.1646473 218.142418,42.7973233 218.969374,42.3491822 C219.771425,41.9233176 220.490676,41.355175 221.092586,40.6720373 C221.724602,39.947187 222.240609,39.1274796 222.622019,38.2424434 C223.064656,37.20741 223.38766,36.124501 223.584661,35.0150726 L225.015131,26.6384133 C225.342904,25.0599518 225.342904,23.4302124 225.015131,21.8517508 C224.762233,20.6935218 224.151122,19.6460327 223.269778,18.8600868 L223.269778,18.8600868 Z M212.34783,29.1314666 L211.556124,33.8093413 C211.478978,34.098898 211.376619,34.3810279 211.250237,34.6524466 C211.128644,34.8974476 210.95694,35.1137238 210.746424,35.287042 C210.523423,35.4547144 210.27404,35.5834263 210.008698,35.6677993 C209.717588,35.7597157 209.414093,35.8055889 209.109032,35.8038352 L203.881971,35.8038352 L205.348427,27.1279583 L210.575488,27.1279583 C210.881035,27.1186911 211.185752,27.1647492 211.475154,27.263943 C211.698335,27.3446464 211.898927,27.4783629 212.059937,27.6537659 C212.210255,27.8287185 212.30986,28.0420027 212.34783,28.27023 C212.39669,28.5551979 212.39669,28.8464987 212.34783,29.1314666 L212.34783,29.1314666 Z" id="Shape"></path>
                <polygon id="Path" points="258.264695 26.9724002 260 16.9090909 233.210111 16.9090909 225.803758 60 253.07667 60 254.80303 49.9366907 239.865095 49.9366907 241.108432 42.7291854 252.531033 42.7291854 254.141109 33.4364899 242.718509 33.4364899 243.809783 26.9724002"></polygon>
                <polygon id="Path" points="189.979123 20.7518797 179.670768 23.1789474 188.660509 0 161.753653 35.1157895 174.592322 32.5533835 162.484237 56.4992481 169.487147 54.9022556 162.404051 72 184.651209 47.6661654 176.445509 49.5879699"></polygon>
            </g>
        </g>
    </g>
</svg>